<svg xmlns="http://www.w3.org/2000/svg" viewBox="0 0 64 64" width="64" height="64">
  <!-- Tête de fer (Iron) - Gris -->
  <!-- Lame du fer -->
  <path d="M52 10 L52 48 Q52 54 46 56 L14 56 Q8 56 8 50 L8 46 Q8 40 14 37 L48 10 Q50 9 52 10 Z"
        fill="url(#ferGrad)" stroke="#555" stroke-width="1.5"/>
  <!-- Rainures -->
  <line x1="16" y1="41" x2="48" y2="18" stroke="#666" stroke-width="1" opacity="0.6"/>
  <line x1="14" y1="44" x2="48" y2="23" stroke="#666" stroke-width="1" opacity="0.6"/>
  <line x1="12" y1="47" x2="48" y2="28" stroke="#666" stroke-width="1" opacity="0.6"/>
  <line x1="11" y1="50" x2="48" y2="33" stroke="#666" stroke-width="1" opacity="0.6"/>
  <line x1="11" y1="53" x2="47" y2="38" stroke="#666" stroke-width="1" opacity="0.6"/>
  <!-- Reflet -->
  <path d="M46 14 L46 30 Q40 34 30 38" fill="white" opacity="0.08"/>
  <defs>
    <linearGradient id="ferGrad" x1="0" y1="0" x2="1" y2="1">
      <stop offset="0%" stop-color="#c0c0c0"/>
      <stop offset="40%" stop-color="#a0a0a0"/>
      <stop offset="100%" stop-color="#707070"/>
    </linearGradient>
  </defs>
</svg>